<?xml version="1.0" encoding="UTF-8"?>
<!DOCTYPE svg PUBLIC "-//W3C//DTD SVG 1.1//EN" "http://www.w3.org/Graphics/SVG/1.1/DTD/svg11.dtd">
<svg xmlns="http://www.w3.org/2000/svg" version="1.1" width="96px" height="96px" style="shape-rendering:geometricPrecision; text-rendering:geometricPrecision; image-rendering:optimizeQuality; fill-rule:evenodd; clip-rule:evenodd" xmlns:xlink="http://www.w3.org/1999/xlink">
<g><path style="opacity:1" fill="#7e8387" d="M 48.5,3.5 C 48.5,11.5 48.5,19.5 48.5,27.5C 37.8281,27.3335 27.1615,27.5002 16.5,28C 15.5494,28.7175 15.3828,29.5509 16,30.5C 17.1451,31.6364 18.3117,32.6364 19.5,33.5C 16.5794,33.2826 13.9128,33.9493 11.5,35.5C 11.2065,31.5633 11.5399,27.73 12.5,24C 24.3921,16.8899 36.3921,10.0566 48.5,3.5 Z"/></g>
<g><path style="opacity:0.969" fill="#4b4b4b" d="M 48.5,3.5 C 59.5111,9.66921 70.1778,16.3359 80.5,23.5C 78.2934,23.5495 75.9601,24.3828 73.5,26C 65.3228,26.1708 57.3228,26.6708 49.5,27.5C 49.1667,27.5 48.8333,27.5 48.5,27.5C 48.5,19.5 48.5,11.5 48.5,3.5 Z"/></g>
<g><path style="opacity:1" fill="#dfdfdf" d="M 48.5,27.5 C 48.8333,27.5 49.1667,27.5 49.5,27.5C 59.4163,27.181 69.2496,27.5144 79,28.5C 79.6667,29.5 79.6667,30.5 79,31.5C 74.5526,39.3962 70.3859,47.3962 66.5,55.5C 61.2665,64.9635 55.7665,74.2968 50,83.5C 49.228,83.3552 48.5613,83.0219 48,82.5C 47.5004,75.8417 47.3337,69.175 47.5,62.5C 47.8205,57.3054 47.4872,52.3054 46.5,47.5C 43.4846,45.3256 40.1513,43.6589 36.5,42.5C 31.3163,38.7396 25.6496,35.7396 19.5,33.5C 18.3117,32.6364 17.1451,31.6364 16,30.5C 15.3828,29.5509 15.5494,28.7175 16.5,28C 27.1615,27.5002 37.8281,27.3335 48.5,27.5 Z"/></g>
<g><path style="opacity:1" fill="#5d5d5d" d="M 80.5,23.5 C 81.4959,23.4142 82.3292,23.7476 83,24.5C 83.4999,38.496 83.6666,52.496 83.5,66.5C 77.3143,63.5777 71.6476,59.911 66.5,55.5C 70.3859,47.3962 74.5526,39.3962 79,31.5C 79.6667,30.5 79.6667,29.5 79,28.5C 69.2496,27.5144 59.4163,27.181 49.5,27.5C 57.3228,26.6708 65.3228,26.1708 73.5,26C 75.9601,24.3828 78.2934,23.5495 80.5,23.5 Z"/></g>
<g><path style="opacity:1" fill="#6e7072" d="M 19.5,33.5 C 25.6496,35.7396 31.3163,38.7396 36.5,42.5C 28.0787,46.545 19.7453,50.8783 11.5,55.5C 11.5,48.8333 11.5,42.1667 11.5,35.5C 13.9128,33.9493 16.5794,33.2826 19.5,33.5 Z"/></g>
<g><path style="opacity:1" fill="#646464" d="M 36.5,42.5 C 40.1513,43.6589 43.4846,45.3256 46.5,47.5C 34.9661,54.0999 23.2994,60.4332 11.5,66.5C 11.5,62.8333 11.5,59.1667 11.5,55.5C 19.7453,50.8783 28.0787,46.545 36.5,42.5 Z"/></g>
<g><path style="opacity:1" fill="#90989f" d="M 46.5,47.5 C 47.4872,52.3054 47.8205,57.3054 47.5,62.5C 39.0396,65.7087 30.7063,69.2087 22.5,73C 23.3805,73.7083 24.0472,74.5416 24.5,75.5C 20.3944,73.6124 16.3944,71.4458 12.5,69C 11.7476,68.3292 11.4142,67.4959 11.5,66.5C 23.2994,60.4332 34.9661,54.0999 46.5,47.5 Z"/></g>
<g><path style="opacity:1" fill="#9aa2aa" d="M 66.5,55.5 C 71.6476,59.911 77.3143,63.5777 83.5,66.5C 82.9688,68.6237 81.6355,70.1237 79.5,71C 69.2738,77.4029 58.9405,83.5695 48.5,89.5C 40.1465,85.3273 32.1465,80.6606 24.5,75.5C 24.0472,74.5416 23.3805,73.7083 22.5,73C 30.7063,69.2087 39.0396,65.7087 47.5,62.5C 47.3337,69.175 47.5004,75.8417 48,82.5C 48.5613,83.0219 49.228,83.3552 50,83.5C 55.7665,74.2968 61.2665,64.9635 66.5,55.5 Z"/></g>
</svg>
